<svg width="18" height="15" viewBox="0 0 18 15" fill="none" xmlns="http://www.w3.org/2000/svg">
<path d="M16.8932 2.94537L14.5338 5.29692C14.0651 10.7578 9.45573 15 3.94794 15C2.81514 15 1.87764 14.8203 1.16671 14.4688C0.596397 14.1797 0.362023 13.875 0.299523 13.7813C0.247812 13.7027 0.214491 13.6135 0.202042 13.5203C0.189593 13.4271 0.198337 13.3323 0.227623 13.2429C0.256909 13.1536 0.305982 13.072 0.371185 13.0042C0.436388 12.9364 0.516041 12.8843 0.604209 12.8516C0.619834 12.8438 2.46358 12.1406 3.65888 10.7891C2.91759 10.2613 2.26604 9.61763 1.7292 8.88284C0.658896 7.42972 -0.473911 4.9063 0.205773 1.14069C0.22714 1.02874 0.278343 0.924645 0.353974 0.839388C0.429605 0.754131 0.526857 0.690882 0.635459 0.65632C0.744407 0.620646 0.861067 0.615625 0.972678 0.641805C1.08429 0.667985 1.18655 0.724358 1.26827 0.804757C1.29171 0.836007 3.89326 3.39849 7.07293 4.22662V3.75006C7.076 3.25452 7.17664 2.76444 7.36911 2.3078C7.56158 1.85116 7.84211 1.43691 8.19469 1.08869C8.54726 0.740468 8.96497 0.465104 9.42396 0.278319C9.88296 0.0915338 10.3743 -0.00301417 10.8698 7.32438e-05C11.5202 0.00934915 12.157 0.186933 12.7184 0.515524C13.2797 0.844115 13.7464 1.31251 14.0729 1.87506H16.4479C16.5713 1.87468 16.692 1.91082 16.7949 1.97895C16.8978 2.04707 16.9782 2.14412 17.026 2.25787C17.071 2.37332 17.0825 2.49915 17.059 2.62082C17.0354 2.74248 16.978 2.85501 16.8932 2.94537Z" fill="black"/>
</svg>
